# xmcd
#
# Track frame offsets:
#	150
#	16219
#	31710
#	46055
#	60863
#	72094
#	85300
#	97952
#	111666
#	129623
#	147715
#	162443
#	184597
#	202104
#	217915
#	230072
#	246092
#	263234
#	276203
#	288740
#	301312
#	317952
#	333338
#
# Disc length: 4620 seconds
#
# Revision: 0
# Processed by: cddbd v1.5.2PL0 Copyright (c) Steve Scherf et al.
# Submitted via: dBpowerAMP V4.0
#
DISCID=57120a17
DTITLE=Various Artist - Invictus Box Set
DYEAR=1900
DGENRE=Soul
TTITLE0=Chairmen Of The Board - Patches
TTITLE1=Eloise Laws - Love Factory
TTITLE2=Hi-Lites - That's Love
TTITLE3=Honey Cone - While You're Out Looking For Sugar
TTITLE4=Barrino Brothers - I Shall Not Be Moved
TTITLE5=Jones Girls - Taster Of The Honey (Not The Keeper Of The Bee)
TTITLE6=Earl English - Wanting You
TTITLE7=Tryone Edwards - Can't Get Enough Of You
TTITLE8=Freda Payne - Chering What Is Dear To You (While It's Near To You)
TTITLE9=Brian Holland - I'm So Glad
TTITLE10=Sherrie Payne - VIP
TTITLE11=100 Proof (Aged In Soul) - Everything Good Is Bad
TTITLE12=Holland, Dozier, Holland - New Breed Kinda Woman
TTITLE13=Chairmen Of The Board - Try On My Love For Size
TTITLE14=Brenda Holloway - Let Love Grow
TTITLE15=Melvin Davis - You Made Me Over
TTITLE16=Ty Hunter - I Don't See Me In Your Eyes Anymore
TTITLE17=Silent Majority - Something New About You
TTITLE18=Jones Girls - Your Love Controls Me
TTITLE19=Brotherly Love - Mama's Little Baby (Love Lovin')
TTITLE20=Ruth Copeland - Music Box
TTITLE21=Holland, Dozier, Holland - Don't Leave Me Starvin' For Your Love
TTITLE22=Frede Payne - You Brough The Joy
EXTD=
EXTT0=
EXTT1=
EXTT2=
EXTT3=
EXTT4=
EXTT5=
EXTT6=
EXTT7=
EXTT8=
EXTT9=
EXTT10=
EXTT11=
EXTT12=
EXTT13=
EXTT14=
EXTT15=
EXTT16=
EXTT17=
EXTT18=
EXTT19=
EXTT20=
EXTT21=
EXTT22=
PLAYORDER=
